<svg width="28" height="26" viewBox="0 0 28 26" fill="none" xmlns="http://www.w3.org/2000/svg" xmlns:xlink="http://www.w3.org/1999/xlink">
<path d="M7.438,7.789C7.092,7.789 6.761,7.926 6.516,8.171C6.272,8.415 6.135,8.746 6.135,9.092C6.135,9.437 6.272,9.769 6.516,10.013C6.761,10.257 7.092,10.395 7.438,10.395L20.465,10.395C20.81,10.395 21.142,10.257 21.386,10.013C21.63,9.769 21.768,9.437 21.768,9.092C21.768,8.746 21.63,8.415 21.386,8.171C21.142,7.926 20.81,7.789 20.465,7.789L7.438,7.789ZM7.438,11.697C7.092,11.697 6.761,11.835 6.516,12.079C6.272,12.323 6.135,12.655 6.135,13C6.135,13.346 6.272,13.677 6.516,13.921C6.761,14.166 7.092,14.303 7.438,14.303L15.254,14.303C15.599,14.303 15.931,14.166 16.175,13.921C16.419,13.677 16.557,13.346 16.557,13C16.557,12.655 16.419,12.323 16.175,12.079C15.931,11.835 15.599,11.697 15.254,11.697L7.438,11.697ZM7.352,-0.027L20.551,-0.027C21.705,-0.027 22.7,-0.027 23.498,0.08C24.351,0.194 25.17,0.453 25.833,1.118C26.498,1.782 26.757,2.6 26.872,3.454C26.978,4.251 26.978,5.246 26.978,6.4L26.978,14.389C26.978,15.543 26.978,16.538 26.872,17.336C26.757,18.189 26.498,19.008 25.833,19.671C25.169,20.336 24.351,20.595 23.498,20.71C22.7,20.817 21.705,20.817 20.551,20.817L17.93,20.817L15.233,25.131C15.097,25.349 14.908,25.528 14.684,25.653C14.46,25.777 14.208,25.842 13.951,25.842C13.695,25.842 13.443,25.777 13.218,25.653C12.994,25.528 12.805,25.349 12.669,25.131L9.973,20.817L7.352,20.817C6.197,20.817 5.202,20.817 4.405,20.71C3.551,20.595 2.732,20.336 2.069,19.671C1.405,19.007 1.145,18.189 1.031,17.336C0.924,16.538 0.924,15.543 0.924,14.389L0.924,6.4C0.924,5.246 0.924,4.251 1.031,3.454C1.145,2.6 1.405,1.781 2.069,1.118C2.733,0.453 3.551,0.194 4.405,0.08C5.202,-0.027 6.197,-0.027 7.352,-0.027Z" clip-rule="evenodd" fill-rule="evenodd" fill="#FFFFFF" fill-opacity="0.5"/>
</svg>
