<svg width="40" height="40" viewBox="0 0 40 40" fill="none" xmlns="http://www.w3.org/2000/svg" xmlns:xlink="http://www.w3.org/1999/xlink">
<path d="M10,12C9.47,12 8.961,12.211 8.586,12.586C8.211,12.961 8,13.47 8,14C8,14.53 8.211,15.039 8.586,15.414C8.961,15.789 9.47,16 10,16L30,16C30.53,16 31.039,15.789 31.414,15.414C31.789,15.039 32,14.53 32,14C32,13.47 31.789,12.961 31.414,12.586C31.039,12.211 30.53,12 30,12L10,12ZM10,18C9.47,18 8.961,18.211 8.586,18.586C8.211,18.961 8,19.47 8,20C8,20.53 8.211,21.039 8.586,21.414C8.961,21.789 9.47,22 10,22L22,22C22.53,22 23.039,21.789 23.414,21.414C23.789,21.039 24,20.53 24,20C24,19.47 23.789,18.961 23.414,18.586C23.039,18.211 22.53,18 22,18L10,18ZM9.868,0L30.132,0C31.904,0 33.432,0 34.656,0.164C35.966,0.34 37.224,0.738 38.242,1.758C39.262,2.778 39.66,4.034 39.836,5.344C40,6.568 40,8.096 40,9.868L40,22.132C40,23.904 40,25.432 39.836,26.656C39.66,27.966 39.262,29.224 38.242,30.242C37.222,31.262 35.966,31.66 34.656,31.836C33.432,32 31.904,32 30.132,32L26.108,32L21.968,38.624C21.76,38.958 21.469,39.233 21.125,39.424C20.781,39.615 20.394,39.715 20,39.715C19.606,39.715 19.219,39.615 18.875,39.424C18.531,39.233 18.24,38.958 18.032,38.624L13.892,32L9.868,32C8.096,32 6.568,32 5.344,31.836C4.034,31.66 2.776,31.262 1.758,30.242C0.738,29.222 0.34,27.966 0.164,26.656C0,25.432 0,23.904 0,22.132L0,9.868C0,8.096 0,6.568 0.164,5.344C0.34,4.034 0.738,2.776 1.758,1.758C2.778,0.738 4.034,0.34 5.344,0.164C6.568,0 8.096,0 9.868,0Z" clip-rule="evenodd" fill-rule="evenodd" fill="#FFFFFF" fill-opacity="0.5"/>
</svg>
