<svg width="32" height="40" viewBox="0 0 32 40" fill="none" xmlns="http://www.w3.org/2000/svg" xmlns:xlink="http://www.w3.org/1999/xlink">
<path d="M12.414,16.586C12.23,16.395 12.009,16.243 11.765,16.138C11.521,16.033 11.258,15.978 10.993,15.976C10.727,15.973 10.464,16.024 10.218,16.124C9.972,16.225 9.749,16.373 9.561,16.561C9.373,16.749 9.225,16.972 9.124,17.218C9.024,17.464 8.973,17.727 8.976,17.993C8.978,18.258 9.033,18.521 9.138,18.765C9.243,19.009 9.395,19.23 9.586,19.414L13.172,23L9.586,26.586C9.395,26.771 9.243,26.991 9.138,27.235C9.033,27.479 8.978,27.742 8.976,28.007C8.973,28.273 9.024,28.536 9.124,28.782C9.225,29.028 9.373,29.251 9.561,29.439C9.749,29.627 9.972,29.775 10.218,29.876C10.464,29.976 10.727,30.027 10.993,30.025C11.258,30.022 11.521,29.967 11.765,29.862C12.009,29.757 12.23,29.605 12.414,29.414L16,25.828L19.586,29.414C19.963,29.778 20.468,29.98 20.993,29.975C21.517,29.971 22.019,29.761 22.39,29.39C22.76,29.019 22.971,28.517 22.975,27.993C22.98,27.468 22.778,26.963 22.414,26.586L18.828,23L22.414,19.414C22.778,19.037 22.98,18.532 22.975,18.007C22.971,17.483 22.76,16.981 22.39,16.61C22.019,16.24 21.517,16.029 20.993,16.025C20.468,16.02 19.963,16.222 19.586,16.586L16,20.172L12.414,16.586ZM16.964,0C18.322,-0.002 19.526,-0.004 20.64,0.456C21.752,0.916 22.602,1.772 23.56,2.732C25.46,4.638 27.362,6.54 29.268,8.438C30.228,9.398 31.082,10.248 31.544,11.36C32.004,12.474 32.004,13.68 32,15.036C31.992,20.068 32,25.1 32,30.132C32,31.904 32,33.432 31.836,34.656C31.66,35.966 31.262,37.224 30.242,38.242C29.222,39.262 27.966,39.66 26.656,39.836C25.432,40 23.904,40 22.132,40L9.868,40C8.096,40 6.568,40 5.344,39.836C4.034,39.66 2.776,39.262 1.758,38.242C0.738,37.222 0.34,35.966 0.164,34.656C0,33.432 0,31.904 0,30.132L0,9.868C0,8.096 0,6.568 0.164,5.344C0.34,4.034 0.738,2.776 1.758,1.758C2.778,0.738 4.034,0.34 5.344,0.164C6.568,0 8.096,0 9.868,0C12.234,0 14.598,0.004 16.964,0Z" clip-rule="evenodd" fill-rule="evenodd" fill="#FFFFFF" fill-opacity="0.5"/>
</svg>
