<svg width="22" height="28" viewBox="0 0 22 28" fill="none" xmlns="http://www.w3.org/2000/svg" xmlns:xlink="http://www.w3.org/1999/xlink">
<path d="M7.616,11.714C7.495,11.589 7.352,11.49 7.193,11.422C7.034,11.353 6.863,11.317 6.69,11.316C6.517,11.314 6.345,11.347 6.185,11.413C6.025,11.478 5.88,11.575 5.757,11.698C5.635,11.82 5.538,11.965 5.473,12.125C5.407,12.285 5.374,12.457 5.376,12.63C5.377,12.803 5.413,12.974 5.482,13.133C5.55,13.292 5.649,13.436 5.774,13.556L8.109,15.892L5.774,18.227C5.649,18.348 5.55,18.491 5.482,18.65C5.413,18.809 5.377,18.98 5.376,19.153C5.374,19.326 5.407,19.498 5.473,19.658C5.538,19.818 5.635,19.963 5.757,20.086C5.88,20.208 6.025,20.305 6.185,20.37C6.345,20.436 6.517,20.469 6.69,20.467C6.863,20.466 7.034,20.43 7.193,20.361C7.352,20.293 7.495,20.194 7.616,20.069L9.951,17.734L12.287,20.069C12.533,20.307 12.862,20.438 13.204,20.435C13.545,20.432 13.872,20.295 14.113,20.054C14.355,19.812 14.492,19.485 14.495,19.144C14.498,18.802 14.367,18.473 14.129,18.227L11.793,15.892L14.129,13.556C14.367,13.31 14.498,12.981 14.495,12.639C14.492,12.298 14.355,11.971 14.113,11.73C13.872,11.488 13.545,11.351 13.204,11.348C12.862,11.345 12.533,11.476 12.287,11.714L9.951,14.049L7.616,11.714ZM10.579,0.91C11.464,0.909 12.248,0.907 12.974,1.207C13.698,1.507 14.252,2.064 14.876,2.69C16.113,3.931 17.352,5.17 18.594,6.406C19.219,7.032 19.775,7.585 20.076,8.31C20.376,9.035 20.376,9.821 20.373,10.704C20.368,13.982 20.373,17.259 20.373,20.537C20.373,21.691 20.373,22.687 20.267,23.484C20.152,24.337 19.893,25.157 19.228,25.82C18.564,26.484 17.746,26.743 16.892,26.858C16.095,26.965 15.1,26.965 13.946,26.965L5.957,26.965C4.803,26.965 3.808,26.965 3.01,26.858C2.157,26.743 1.338,26.484 0.675,25.82C0.01,25.155 -0.249,24.337 -0.364,23.484C-0.47,22.687 -0.47,21.691 -0.47,20.537L-0.47,7.338C-0.47,6.184 -0.47,5.188 -0.364,4.391C-0.249,3.538 0.01,2.718 0.675,2.055C1.339,1.391 2.157,1.132 3.01,1.017C3.808,0.91 4.803,0.91 5.957,0.91C7.498,0.91 9.038,0.913 10.579,0.91Z" clip-rule="evenodd" fill-rule="evenodd" fill="#FFFFFF" fill-opacity="0.5"/>
</svg>
