<svg width="40" height="40" viewBox="0 0 40 40" fill="none" xmlns="http://www.w3.org/2000/svg" xmlns:xlink="http://www.w3.org/1999/xlink">
<path d="M26.048,40C28.554,40 30.704,39.868 32.502,39.47C34.322,39.064 35.898,38.36 37.13,37.13C38.36,35.898 39.064,34.322 39.47,32.502C39.87,30.704 40,28.554 40,26.048L40,20C40,18.939 39.579,17.922 38.828,17.172C38.078,16.421 37.061,16 36,16L20,16C18.939,16 17.922,16.421 17.172,17.172C16.421,17.922 16,18.939 16,20L16,36C16,37.061 16.421,38.078 17.172,38.828C17.922,39.579 18.939,40 20,40L26.048,40ZM0,26.048C0,28.554 0.132,30.704 0.532,32.502C0.936,34.322 1.64,35.898 2.872,37.13C4.102,38.36 5.678,39.064 7.498,39.47C7.672,39.508 7.848,39.544 8.024,39.578C10.192,39.998 12,38.162 12,35.952L12,20C12,18.939 11.579,17.922 10.828,17.172C10.078,16.421 9.061,16 8,16L4,16C2.939,16 1.922,16.421 1.172,17.172C0.421,17.922 0,18.939 0,20L0,26.048ZM13.952,0C11.446,0 9.296,0.132 7.498,0.532C5.678,0.936 4.102,1.64 2.87,2.872C1.64,4.102 0.936,5.678 0.53,7.498C0.498,7.648 0.466,7.798 0.438,7.948C0.008,10.146 1.878,12 4.118,12L35.952,12C38.162,12 39.998,10.192 39.578,8.024C39.544,7.848 39.507,7.673 39.468,7.498C39.064,5.678 38.36,4.102 37.128,2.87C35.898,1.64 34.322,0.936 32.502,0.53C30.704,0.13 28.554,0 26.048,0L13.952,0Z" clip-rule="evenodd" fill-rule="evenodd" fill="#FFFFFF"/>
</svg>
