<svg width="30" height="28" viewBox="0 0 30 28" fill="none" xmlns="http://www.w3.org/2000/svg" xmlns:xlink="http://www.w3.org/1999/xlink">
<path d="M16.557,26.434L4.832,26.434C3.796,26.434 2.801,26.022 2.069,25.289C1.336,24.556 0.924,23.562 0.924,22.525L0.924,4.287C0.924,3.251 1.336,2.257 2.069,1.524C2.801,0.791 3.796,0.379 4.832,0.379L24.373,0.379C25.41,0.379 26.404,0.791 27.137,1.524C27.869,2.257 28.281,3.251 28.281,4.287L28.281,22.525C28.281,23.562 27.869,24.556 27.137,25.289C26.404,26.022 25.41,26.434 24.373,26.434L16.557,26.434ZM5.053,23.828C4.91,23.42 4.832,22.981 4.832,22.525L4.832,4.287C4.832,3.831 4.91,3.392 5.053,2.984L4.832,2.984C4.487,2.984 4.155,3.122 3.911,3.366C3.667,3.61 3.529,3.942 3.529,4.287L3.529,22.525C3.529,22.871 3.667,23.202 3.911,23.447C4.155,23.691 4.487,23.828 4.832,23.828L5.053,23.828ZM10.043,8.215C10.043,8.044 10.076,7.874 10.141,7.716C10.206,7.558 10.302,7.414 10.423,7.293C10.543,7.172 10.687,7.076 10.845,7.01C11.003,6.944 11.172,6.91 11.343,6.91L21.765,6.893C22.11,6.892 22.442,7.029 22.687,7.272C22.932,7.516 23.07,7.847 23.07,8.193C23.071,8.538 22.934,8.87 22.691,9.115C22.447,9.36 22.116,9.497 21.77,9.498L11.348,9.515C11.177,9.515 11.008,9.482 10.85,9.417C10.691,9.352 10.548,9.256 10.426,9.135C10.305,9.015 10.209,8.871 10.143,8.713C10.077,8.555 10.043,8.386 10.043,8.215ZM10.043,13.441C10.043,13.096 10.179,12.765 10.423,12.52C10.667,12.276 10.998,12.138 11.343,12.137L21.765,12.121C22.11,12.12 22.442,12.256 22.687,12.5C22.932,12.744 23.07,13.075 23.07,13.421C23.071,13.766 22.934,14.098 22.691,14.343C22.447,14.587 22.116,14.725 21.77,14.726L11.348,14.743C11.177,14.743 11.008,14.71 10.85,14.645C10.691,14.58 10.548,14.484 10.426,14.363C10.305,14.242 10.209,14.099 10.143,13.941C10.077,13.783 10.043,13.613 10.043,13.441ZM10.043,18.652C10.043,18.307 10.179,17.976 10.423,17.731C10.667,17.487 10.998,17.349 11.343,17.348L21.765,17.331C22.11,17.331 22.442,17.467 22.687,17.711C22.932,17.955 23.07,18.286 23.07,18.632C23.071,18.977 22.934,19.309 22.691,19.554C22.447,19.798 22.116,19.936 21.77,19.937L11.348,19.954C11.177,19.954 11.008,19.921 10.85,19.856C10.691,19.791 10.548,19.695 10.426,19.574C10.305,19.453 10.209,19.31 10.143,19.152C10.077,18.994 10.043,18.824 10.043,18.652Z" clip-rule="evenodd" fill-rule="evenodd" fill="#FFFFFF" fill-opacity="0.5"/>
</svg>
