<svg width="28" height="26" viewBox="0 0 28 26" fill="none" xmlns="http://www.w3.org/2000/svg" xmlns:xlink="http://www.w3.org/1999/xlink">
<path d="M25.381,7.794C27.479,5.689 27.389,2.925 25.823,1.231C25.429,0.805 24.953,0.463 24.424,0.225C23.894,-0.012 23.322,-0.141 22.742,-0.152C21.506,-0.181 20.226,0.291 19.045,1.279C19.015,1.305 18.985,1.331 18.958,1.359L2.062,18.322C1.332,19.055 0.923,20.048 0.924,21.082L0.924,23.288C0.924,24.722 2.086,25.902 3.535,25.902L5.722,25.902C6.236,25.902 6.746,25.801 7.221,25.603C7.696,25.406 8.127,25.116 8.49,24.752L25.381,7.794ZM20.735,4.789C20.614,4.665 20.471,4.565 20.312,4.497C20.153,4.429 19.982,4.393 19.809,4.391C19.636,4.39 19.464,4.423 19.304,4.488C19.144,4.554 18.999,4.65 18.876,4.773C18.754,4.895 18.657,5.041 18.592,5.201C18.526,5.361 18.493,5.532 18.495,5.705C18.496,5.878 18.532,6.049 18.601,6.208C18.669,6.367 18.768,6.511 18.892,6.631L20.195,7.934C20.315,8.058 20.459,8.157 20.618,8.226C20.777,8.294 20.948,8.33 21.121,8.331C21.294,8.333 21.465,8.3 21.625,8.234C21.786,8.169 21.931,8.072 22.053,7.95C22.176,7.828 22.272,7.682 22.338,7.522C22.403,7.362 22.436,7.19 22.435,7.017C22.433,6.844 22.397,6.673 22.329,6.515C22.261,6.356 22.162,6.212 22.037,6.092L20.735,4.789Z" clip-rule="evenodd" fill-rule="evenodd" fill="#FFFFFF" fill-opacity="0.5"/>
</svg>
