<svg width="28" height="28" viewBox="0 0 28 28" fill="none" xmlns="http://www.w3.org/2000/svg" xmlns:xlink="http://www.w3.org/1999/xlink">
<path d="M17.891,26.84C19.523,26.84 20.923,26.754 22.095,26.495C23.28,26.23 24.307,25.772 25.109,24.97C25.91,24.168 26.369,23.141 26.633,21.956C26.894,20.785 26.978,19.384 26.978,17.752L26.978,13.813C26.978,13.122 26.704,12.459 26.215,11.97C25.727,11.482 25.064,11.207 24.373,11.207L13.951,11.207C13.26,11.207 12.597,11.482 12.109,11.97C11.62,12.459 11.346,13.122 11.346,13.813L11.346,24.234C11.346,24.925 11.62,25.588 12.109,26.077C12.597,26.565 13.26,26.84 13.951,26.84L17.891,26.84ZM0.924,17.752C0.924,19.384 1.01,20.785 1.27,21.956C1.534,23.141 1.992,24.168 2.795,24.97C3.596,25.772 4.622,26.23 5.808,26.495C5.921,26.519 6.036,26.543 6.15,26.565C7.563,26.839 8.74,25.643 8.74,24.203L8.74,13.813C8.74,13.122 8.466,12.459 7.977,11.97C7.488,11.482 6.826,11.207 6.135,11.207L3.529,11.207C2.838,11.207 2.176,11.482 1.687,11.97C1.198,12.459 0.924,13.122 0.924,13.813L0.924,17.752ZM10.012,0.785C8.379,0.785 6.979,0.871 5.808,1.132C4.622,1.395 3.596,1.853 2.793,2.656C1.992,3.457 1.534,4.484 1.269,5.669C1.248,5.767 1.227,5.865 1.209,5.962C0.929,7.394 2.147,8.602 3.606,8.602L24.342,8.602C25.781,8.602 26.977,7.424 26.704,6.012C26.681,5.897 26.657,5.783 26.632,5.669C26.369,4.484 25.91,3.457 25.108,2.655C24.307,1.853 23.28,1.395 22.095,1.13C20.923,0.87 19.523,0.785 17.891,0.785L10.012,0.785Z" clip-rule="evenodd" fill-rule="evenodd" fill="#FFFFFF"/>
</svg>
