<svg width="42" height="40" viewBox="0 0 42 40" fill="none" xmlns="http://www.w3.org/2000/svg" xmlns:xlink="http://www.w3.org/1999/xlink">
<path d="M24,40L6,40C4.409,40 2.883,39.368 1.757,38.243C0.632,37.117 0,35.591 0,34L0,6C0,4.409 0.632,2.883 1.757,1.757C2.883,0.632 4.409,0 6,0L36,0C37.591,0 39.117,0.632 40.243,1.757C41.368,2.883 42,4.409 42,6L42,34C42,35.591 41.368,37.117 40.243,38.243C39.117,39.368 37.591,40 36,40L24,40ZM6.34,36C6.12,35.374 6,34.7 6,34L6,6C6,5.3 6.12,4.626 6.34,4L6,4C5.47,4 4.961,4.211 4.586,4.586C4.211,4.961 4,5.47 4,6L4,34C4,34.53 4.211,35.039 4.586,35.414C4.961,35.789 5.47,36 6,36L6.34,36ZM14,12.03C13.999,11.767 14.051,11.507 14.151,11.264C14.251,11.021 14.398,10.801 14.583,10.615C14.768,10.429 14.988,10.281 15.231,10.18C15.473,10.079 15.733,10.027 15.996,10.026L31.996,10C32.526,9.999 33.036,10.209 33.411,10.583C33.787,10.957 33.999,11.466 34,11.996C34.001,12.526 33.791,13.036 33.417,13.411C33.043,13.787 32.534,13.999 32.004,14L16.004,14.026C15.741,14.027 15.481,13.975 15.238,13.875C14.995,13.775 14.775,13.628 14.589,13.443C14.403,13.258 14.255,13.038 14.154,12.795C14.053,12.553 14.001,12.293 14,12.03ZM14,20.054C13.999,19.524 14.209,19.015 14.584,18.64C14.958,18.265 15.466,18.053 15.996,18.052L31.996,18.026C32.526,18.025 33.036,18.235 33.411,18.609C33.787,18.983 33.999,19.492 34,20.022C34.001,20.552 33.791,21.062 33.417,21.437C33.043,21.813 32.534,22.025 32.004,22.026L16.004,22.052C15.741,22.053 15.481,22.001 15.238,21.901C14.995,21.801 14.775,21.654 14.589,21.469C14.403,21.284 14.255,21.064 14.154,20.821C14.053,20.579 14.001,20.317 14,20.054ZM14,28.054C13.999,27.524 14.209,27.015 14.584,26.64C14.958,26.265 15.466,26.053 15.996,26.052L31.996,26.026C32.526,26.025 33.036,26.235 33.411,26.609C33.787,26.983 33.999,27.492 34,28.022C34.001,28.552 33.791,29.062 33.417,29.437C33.043,29.813 32.534,30.025 32.004,30.026L16.004,30.052C15.741,30.053 15.481,30.001 15.238,29.901C14.995,29.801 14.775,29.654 14.589,29.469C14.403,29.284 14.255,29.064 14.154,28.821C14.053,28.579 14.001,28.317 14,28.054Z" clip-rule="evenodd" fill-rule="evenodd" fill="#FFFFFF" fill-opacity="0.5"/>
</svg>
