<svg width="40" height="40" viewBox="0 0 40 40" fill="none" xmlns="http://www.w3.org/2000/svg" xmlns:xlink="http://www.w3.org/1999/xlink">
<path d="M37.548,12.2C40.768,8.968 40.63,4.724 38.226,2.124C37.621,1.47 36.89,0.945 36.078,0.58C35.265,0.215 34.387,0.018 33.496,0C31.598,-0.044 29.634,0.68 27.82,2.198C27.773,2.237 27.729,2.277 27.686,2.32L1.748,28.362C0.627,29.488 -0.001,31.012 0,32.6L0,35.986C0,38.188 1.784,40 4.008,40L7.366,40C8.156,40 8.938,39.844 9.667,39.541C10.396,39.238 11.059,38.794 11.616,38.234L37.548,12.2ZM30.414,7.586C30.23,7.395 30.009,7.243 29.765,7.138C29.521,7.033 29.258,6.978 28.993,6.975C28.727,6.973 28.464,7.024 28.218,7.124C27.972,7.225 27.749,7.373 27.561,7.561C27.373,7.749 27.225,7.972 27.124,8.218C27.024,8.464 26.973,8.727 26.976,8.993C26.978,9.258 27.033,9.521 27.138,9.765C27.243,10.009 27.395,10.23 27.586,10.414L29.586,12.414C29.77,12.605 29.991,12.757 30.235,12.862C30.479,12.967 30.742,13.022 31.007,13.025C31.273,13.027 31.536,12.976 31.782,12.876C32.028,12.775 32.251,12.627 32.439,12.439C32.627,12.251 32.775,12.028 32.876,11.782C32.976,11.536 33.027,11.273 33.025,11.007C33.022,10.742 32.967,10.479 32.862,10.235C32.757,9.991 32.605,9.77 32.414,9.586L30.414,7.586Z" clip-rule="evenodd" fill-rule="evenodd" fill="#FFFFFF" fill-opacity="0.5"/>
</svg>
