<svg width="28" height="26" viewBox="0 0 28 26" fill="none" xmlns="http://www.w3.org/2000/svg" xmlns:xlink="http://www.w3.org/1999/xlink">
<path d="M0.924,12.469C0.924,5.274 6.756,-0.559 13.951,-0.559C21.146,-0.559 26.978,5.274 26.978,12.469C26.978,19.664 21.146,25.496 13.951,25.496C6.756,25.496 0.924,19.664 0.924,12.469ZM8.74,9.863C8.74,9.518 8.877,9.186 9.122,8.942C9.366,8.698 9.697,8.561 10.043,8.561L17.859,8.561C18.205,8.561 18.536,8.698 18.781,8.942C19.025,9.186 19.162,9.518 19.162,9.863C19.162,10.209 19.025,10.54 18.781,10.784C18.536,11.029 18.205,11.166 17.859,11.166L10.043,11.166C9.697,11.166 9.366,11.029 9.122,10.784C8.877,10.54 8.74,10.209 8.74,9.863ZM8.74,15.074C8.74,14.729 8.877,14.397 9.122,14.153C9.366,13.909 9.697,13.772 10.043,13.772L17.859,13.772C18.205,13.772 18.536,13.909 18.781,14.153C19.025,14.397 19.162,14.729 19.162,15.074C19.162,15.42 19.025,15.751 18.781,15.995C18.536,16.24 18.205,16.377 17.859,16.377L10.043,16.377C9.697,16.377 9.366,16.24 9.122,15.995C8.877,15.751 8.74,15.42 8.74,15.074Z" clip-rule="evenodd" fill-rule="evenodd" fill="#FFFFFF" fill-opacity="0.5"/>
</svg>
