<svg width="40" height="40" viewBox="0 0 40 40" fill="none" xmlns="http://www.w3.org/2000/svg" xmlns:xlink="http://www.w3.org/1999/xlink">
<path d="M0,20C0,8.954 8.954,0 20,0C31.046,0 40,8.954 40,20C40,31.046 31.046,40 20,40C8.954,40 0,31.046 0,20ZM12,16C12,15.47 12.211,14.961 12.586,14.586C12.961,14.211 13.47,14 14,14L26,14C26.53,14 27.039,14.211 27.414,14.586C27.789,14.961 28,15.47 28,16C28,16.53 27.789,17.039 27.414,17.414C27.039,17.789 26.53,18 26,18L14,18C13.47,18 12.961,17.789 12.586,17.414C12.211,17.039 12,16.53 12,16ZM12,24C12,23.47 12.211,22.961 12.586,22.586C12.961,22.211 13.47,22 14,22L26,22C26.53,22 27.039,22.211 27.414,22.586C27.789,22.961 28,23.47 28,24C28,24.53 27.789,25.039 27.414,25.414C27.039,25.789 26.53,26 26,26L14,26C13.47,26 12.961,25.789 12.586,25.414C12.211,25.039 12,24.53 12,24Z" clip-rule="evenodd" fill-rule="evenodd" fill="#FFFFFF" fill-opacity="0.5"/>
</svg>
