<svg width="86" height="92" viewBox="0 0 86 92" fill="none" xmlns="http://www.w3.org/2000/svg" xmlns:xlink="http://www.w3.org/1999/xlink">
<path d="M84.83,79.54L68.083,61.627C67.327,60.818 66.302,60.369 65.227,60.369L62.489,60.369C67.125,54.027 69.88,46.049 69.88,37.371C69.88,16.727 54.241,0 34.94,0C15.639,0 0,16.727 0,37.371C0,58.015 15.639,74.743 34.94,74.743C43.054,74.743 50.512,71.796 56.442,66.837L56.442,69.766C56.442,70.916 56.862,72.012 57.617,72.82L74.365,90.733C75.944,92.422 78.498,92.422 80.06,90.733L84.814,85.649C86.393,83.96 86.393,81.229 84.83,79.54ZM34.94,60.369C23.064,60.369 13.438,50.092 13.438,37.371C13.438,24.669 23.047,14.374 34.94,14.374C46.816,14.374 56.442,24.651 56.442,37.371C56.442,50.074 46.833,60.369 34.94,60.369Z" fill="#868181"/>
</svg>
